<mxfile host="65bd71144e">
    <diagram id="CYYaLjD-E2wavenpG5ps" name="Page-1">
        <mxGraphModel dx="1973" dy="1789" grid="1" gridSize="10" guides="1" tooltips="1" connect="1" arrows="1" fold="1" page="1" pageScale="1" pageWidth="850" pageHeight="1100" math="0" shadow="0">
            <root>
                <mxCell id="0"/>
                <mxCell id="1" parent="0"/>
                <mxCell id="54" value="" style="rounded=0;whiteSpace=wrap;html=1;" parent="1" vertex="1">
                    <mxGeometry x="30" y="70" width="830" height="560" as="geometry"/>
                </mxCell>
                <mxCell id="3" value="" style="shape=waypoint;sketch=0;fillStyle=solid;size=6;pointerEvents=1;points=[];fillColor=none;resizable=0;rotatable=0;perimeter=centerPerimeter;snapToPoint=1;strokeWidth=7;" parent="1" vertex="1">
                    <mxGeometry x="130" y="650" width="20" height="20" as="geometry"/>
                </mxCell>
                <mxCell id="4" value="" style="shape=waypoint;sketch=0;fillStyle=solid;size=6;pointerEvents=1;points=[];fillColor=none;resizable=0;rotatable=0;perimeter=centerPerimeter;snapToPoint=1;strokeWidth=7;" parent="1" vertex="1">
                    <mxGeometry x="50" y="650" width="20" height="20" as="geometry"/>
                </mxCell>
                <mxCell id="7" value="" style="shape=waypoint;sketch=0;fillStyle=solid;size=6;pointerEvents=1;points=[];fillColor=none;resizable=0;rotatable=0;perimeter=centerPerimeter;snapToPoint=1;strokeWidth=7;" parent="1" vertex="1">
                    <mxGeometry x="290" y="650" width="20" height="20" as="geometry"/>
                </mxCell>
                <mxCell id="8" value="" style="endArrow=classic;startArrow=classic;html=1;exitX=1.091;exitY=0.611;exitDx=0;exitDy=0;exitPerimeter=0;entryX=0.331;entryY=0.611;entryDx=0;entryDy=0;entryPerimeter=0;fillColor=#d5e8d4;strokeColor=#82b366;" parent="1" source="4" target="3" edge="1">
                    <mxGeometry width="50" height="50" relative="1" as="geometry">
                        <mxPoint x="270" y="550" as="sourcePoint"/>
                        <mxPoint x="320" y="500" as="targetPoint"/>
                    </mxGeometry>
                </mxCell>
                <mxCell id="9" value="" style="endArrow=classic;startArrow=classic;html=1;exitX=0.511;exitY=1.031;exitDx=0;exitDy=0;exitPerimeter=0;fillColor=#d5e8d4;strokeColor=#82b366;" parent="1" source="3" target="13" edge="1">
                    <mxGeometry width="50" height="50" relative="1" as="geometry">
                        <mxPoint x="70" y="670" as="sourcePoint"/>
                        <mxPoint x="190" y="700" as="targetPoint"/>
                    </mxGeometry>
                </mxCell>
                <mxCell id="10" value="" style="endArrow=classic;startArrow=classic;html=1;fillColor=#d5e8d4;strokeColor=#82b366;" parent="1" source="14" target="7" edge="1">
                    <mxGeometry width="50" height="50" relative="1" as="geometry">
                        <mxPoint x="250" y="710" as="sourcePoint"/>
                        <mxPoint x="230" y="670" as="targetPoint"/>
                    </mxGeometry>
                </mxCell>
                <mxCell id="11" value="" style="shape=waypoint;sketch=0;fillStyle=solid;size=6;pointerEvents=1;points=[];fillColor=none;resizable=0;rotatable=0;perimeter=centerPerimeter;snapToPoint=1;strokeWidth=0;" parent="1" vertex="1">
                    <mxGeometry x="190" y="650" width="20" height="20" as="geometry"/>
                </mxCell>
                <mxCell id="12" value="" style="shape=waypoint;sketch=0;fillStyle=solid;size=6;pointerEvents=1;points=[];fillColor=none;resizable=0;rotatable=0;perimeter=centerPerimeter;snapToPoint=1;strokeWidth=0;" parent="1" vertex="1">
                    <mxGeometry x="200" y="650" width="20" height="20" as="geometry"/>
                </mxCell>
                <mxCell id="13" value="" style="shape=waypoint;sketch=0;fillStyle=solid;size=6;pointerEvents=1;points=[];fillColor=none;resizable=0;rotatable=0;perimeter=centerPerimeter;snapToPoint=1;strokeWidth=0;" parent="1" vertex="1">
                    <mxGeometry x="190" y="650" width="20" height="20" as="geometry"/>
                </mxCell>
                <mxCell id="14" value="" style="shape=waypoint;sketch=0;fillStyle=solid;size=6;pointerEvents=1;points=[];fillColor=none;resizable=0;rotatable=0;perimeter=centerPerimeter;snapToPoint=1;strokeWidth=0;" parent="1" vertex="1">
                    <mxGeometry x="210" y="650" width="20" height="20" as="geometry"/>
                </mxCell>
                <mxCell id="15" value="CR1" style="text;html=1;strokeColor=none;fillColor=none;align=center;verticalAlign=middle;whiteSpace=wrap;rounded=0;strokeWidth=0;" parent="1" vertex="1">
                    <mxGeometry x="30" y="680" width="60" height="30" as="geometry"/>
                </mxCell>
                <mxCell id="16" value="CR2" style="text;html=1;strokeColor=none;fillColor=none;align=center;verticalAlign=middle;whiteSpace=wrap;rounded=0;strokeWidth=0;" parent="1" vertex="1">
                    <mxGeometry x="110" y="680" width="60" height="30" as="geometry"/>
                </mxCell>
                <mxCell id="17" value="CRn" style="text;html=1;strokeColor=none;fillColor=none;align=center;verticalAlign=middle;whiteSpace=wrap;rounded=0;strokeWidth=0;" parent="1" vertex="1">
                    <mxGeometry x="270" y="680" width="60" height="30" as="geometry"/>
                </mxCell>
                <mxCell id="18" value="t0" style="text;html=1;strokeColor=none;fillColor=none;align=center;verticalAlign=middle;whiteSpace=wrap;rounded=0;" parent="1" vertex="1">
                    <mxGeometry x="-60" y="645" width="60" height="30" as="geometry"/>
                </mxCell>
                <mxCell id="19" value="" style="shape=waypoint;sketch=0;fillStyle=solid;size=6;pointerEvents=1;points=[];fillColor=none;resizable=0;rotatable=0;perimeter=centerPerimeter;snapToPoint=1;strokeWidth=7;" parent="1" vertex="1">
                    <mxGeometry x="130" y="330" width="20" height="20" as="geometry"/>
                </mxCell>
                <mxCell id="20" value="" style="shape=waypoint;sketch=0;fillStyle=solid;size=6;pointerEvents=1;points=[];fillColor=none;resizable=0;rotatable=0;perimeter=centerPerimeter;snapToPoint=1;strokeWidth=7;" parent="1" vertex="1">
                    <mxGeometry x="50" y="330" width="20" height="20" as="geometry"/>
                </mxCell>
                <mxCell id="21" value="" style="shape=waypoint;sketch=0;fillStyle=solid;size=6;pointerEvents=1;points=[];fillColor=none;resizable=0;rotatable=0;perimeter=centerPerimeter;snapToPoint=1;strokeWidth=7;" parent="1" vertex="1">
                    <mxGeometry x="290" y="330" width="20" height="20" as="geometry"/>
                </mxCell>
                <mxCell id="22" value="" style="endArrow=classic;startArrow=classic;html=1;exitX=1.091;exitY=0.611;exitDx=0;exitDy=0;exitPerimeter=0;entryX=0.331;entryY=0.611;entryDx=0;entryDy=0;entryPerimeter=0;fillColor=#d5e8d4;strokeColor=#82b366;" parent="1" source="20" target="19" edge="1">
                    <mxGeometry width="50" height="50" relative="1" as="geometry">
                        <mxPoint x="270" y="230" as="sourcePoint"/>
                        <mxPoint x="320" y="180" as="targetPoint"/>
                    </mxGeometry>
                </mxCell>
                <mxCell id="23" value="" style="endArrow=classic;startArrow=classic;html=1;exitX=0.511;exitY=1.031;exitDx=0;exitDy=0;exitPerimeter=0;fillColor=#d5e8d4;strokeColor=#82b366;" parent="1" source="19" target="27" edge="1">
                    <mxGeometry width="50" height="50" relative="1" as="geometry">
                        <mxPoint x="70" y="350" as="sourcePoint"/>
                        <mxPoint x="190" y="380" as="targetPoint"/>
                    </mxGeometry>
                </mxCell>
                <mxCell id="24" value="" style="endArrow=classic;startArrow=classic;html=1;fillColor=#d5e8d4;strokeColor=#82b366;" parent="1" source="28" target="21" edge="1">
                    <mxGeometry width="50" height="50" relative="1" as="geometry">
                        <mxPoint x="250" y="390" as="sourcePoint"/>
                        <mxPoint x="230" y="350" as="targetPoint"/>
                    </mxGeometry>
                </mxCell>
                <mxCell id="25" value="" style="shape=waypoint;sketch=0;fillStyle=solid;size=6;pointerEvents=1;points=[];fillColor=none;resizable=0;rotatable=0;perimeter=centerPerimeter;snapToPoint=1;strokeWidth=0;" parent="1" vertex="1">
                    <mxGeometry x="190" y="330" width="20" height="20" as="geometry"/>
                </mxCell>
                <mxCell id="26" value="" style="shape=waypoint;sketch=0;fillStyle=solid;size=6;pointerEvents=1;points=[];fillColor=none;resizable=0;rotatable=0;perimeter=centerPerimeter;snapToPoint=1;strokeWidth=0;" parent="1" vertex="1">
                    <mxGeometry x="200" y="330" width="20" height="20" as="geometry"/>
                </mxCell>
                <mxCell id="27" value="" style="shape=waypoint;sketch=0;fillStyle=solid;size=6;pointerEvents=1;points=[];fillColor=none;resizable=0;rotatable=0;perimeter=centerPerimeter;snapToPoint=1;strokeWidth=0;" parent="1" vertex="1">
                    <mxGeometry x="190" y="330" width="20" height="20" as="geometry"/>
                </mxCell>
                <mxCell id="28" value="" style="shape=waypoint;sketch=0;fillStyle=solid;size=6;pointerEvents=1;points=[];fillColor=none;resizable=0;rotatable=0;perimeter=centerPerimeter;snapToPoint=1;strokeWidth=0;" parent="1" vertex="1">
                    <mxGeometry x="210" y="330" width="20" height="20" as="geometry"/>
                </mxCell>
                <mxCell id="32" value="" style="endArrow=classic;html=1;dashed=1;" parent="1" edge="1">
                    <mxGeometry width="50" height="50" relative="1" as="geometry">
                        <mxPoint x="60" y="591" as="sourcePoint"/>
                        <mxPoint x="60" y="411" as="targetPoint"/>
                    </mxGeometry>
                </mxCell>
                <mxCell id="33" value="" style="endArrow=classic;html=1;dashed=1;" parent="1" edge="1">
                    <mxGeometry width="50" height="50" relative="1" as="geometry">
                        <mxPoint x="139.5" y="590" as="sourcePoint"/>
                        <mxPoint x="139.5" y="410" as="targetPoint"/>
                    </mxGeometry>
                </mxCell>
                <mxCell id="34" value="" style="endArrow=classic;html=1;dashed=1;" parent="1" edge="1">
                    <mxGeometry width="50" height="50" relative="1" as="geometry">
                        <mxPoint x="299.5" y="590" as="sourcePoint"/>
                        <mxPoint x="299.5" y="410" as="targetPoint"/>
                    </mxGeometry>
                </mxCell>
                <mxCell id="35" value="t1 &amp;gt; t0" style="text;html=1;strokeColor=none;fillColor=none;align=center;verticalAlign=middle;whiteSpace=wrap;rounded=0;" parent="1" vertex="1">
                    <mxGeometry x="-60" y="325" width="60" height="30" as="geometry"/>
                </mxCell>
                <mxCell id="36" value="" style="shape=waypoint;sketch=0;fillStyle=solid;size=6;pointerEvents=1;points=[];fillColor=none;resizable=0;rotatable=0;perimeter=centerPerimeter;snapToPoint=1;strokeWidth=7;" parent="1" vertex="1">
                    <mxGeometry x="130" y="10" width="20" height="20" as="geometry"/>
                </mxCell>
                <mxCell id="37" value="" style="shape=waypoint;sketch=0;fillStyle=solid;size=6;pointerEvents=1;points=[];fillColor=none;resizable=0;rotatable=0;perimeter=centerPerimeter;snapToPoint=1;strokeWidth=7;" parent="1" vertex="1">
                    <mxGeometry x="50" y="10" width="20" height="20" as="geometry"/>
                </mxCell>
                <mxCell id="38" value="" style="shape=waypoint;sketch=0;fillStyle=solid;size=6;pointerEvents=1;points=[];fillColor=none;resizable=0;rotatable=0;perimeter=centerPerimeter;snapToPoint=1;strokeWidth=7;" parent="1" vertex="1">
                    <mxGeometry x="290" y="10" width="20" height="20" as="geometry"/>
                </mxCell>
                <mxCell id="39" value="" style="endArrow=classic;startArrow=classic;html=1;exitX=1.091;exitY=0.611;exitDx=0;exitDy=0;exitPerimeter=0;entryX=0.331;entryY=0.611;entryDx=0;entryDy=0;entryPerimeter=0;fillColor=#d5e8d4;strokeColor=#82b366;" parent="1" source="37" target="36" edge="1">
                    <mxGeometry width="50" height="50" relative="1" as="geometry">
                        <mxPoint x="270" y="-90" as="sourcePoint"/>
                        <mxPoint x="320" y="-140" as="targetPoint"/>
                    </mxGeometry>
                </mxCell>
                <mxCell id="40" value="" style="endArrow=classic;startArrow=classic;html=1;exitX=0.511;exitY=1.031;exitDx=0;exitDy=0;exitPerimeter=0;fillColor=#d5e8d4;strokeColor=#82b366;" parent="1" source="36" target="44" edge="1">
                    <mxGeometry width="50" height="50" relative="1" as="geometry">
                        <mxPoint x="70" y="30" as="sourcePoint"/>
                        <mxPoint x="190" y="60" as="targetPoint"/>
                    </mxGeometry>
                </mxCell>
                <mxCell id="41" value="" style="endArrow=classic;startArrow=classic;html=1;fillColor=#d5e8d4;strokeColor=#82b366;" parent="1" source="45" target="38" edge="1">
                    <mxGeometry width="50" height="50" relative="1" as="geometry">
                        <mxPoint x="250" y="70" as="sourcePoint"/>
                        <mxPoint x="230" y="30" as="targetPoint"/>
                    </mxGeometry>
                </mxCell>
                <mxCell id="42" value="" style="shape=waypoint;sketch=0;fillStyle=solid;size=6;pointerEvents=1;points=[];fillColor=none;resizable=0;rotatable=0;perimeter=centerPerimeter;snapToPoint=1;strokeWidth=0;" parent="1" vertex="1">
                    <mxGeometry x="190" y="10" width="20" height="20" as="geometry"/>
                </mxCell>
                <mxCell id="43" value="" style="shape=waypoint;sketch=0;fillStyle=solid;size=6;pointerEvents=1;points=[];fillColor=none;resizable=0;rotatable=0;perimeter=centerPerimeter;snapToPoint=1;strokeWidth=0;" parent="1" vertex="1">
                    <mxGeometry x="200" y="10" width="20" height="20" as="geometry"/>
                </mxCell>
                <mxCell id="44" value="" style="shape=waypoint;sketch=0;fillStyle=solid;size=6;pointerEvents=1;points=[];fillColor=none;resizable=0;rotatable=0;perimeter=centerPerimeter;snapToPoint=1;strokeWidth=0;" parent="1" vertex="1">
                    <mxGeometry x="190" y="10" width="20" height="20" as="geometry"/>
                </mxCell>
                <mxCell id="45" value="" style="shape=waypoint;sketch=0;fillStyle=solid;size=6;pointerEvents=1;points=[];fillColor=none;resizable=0;rotatable=0;perimeter=centerPerimeter;snapToPoint=1;strokeWidth=0;" parent="1" vertex="1">
                    <mxGeometry x="210" y="10" width="20" height="20" as="geometry"/>
                </mxCell>
                <mxCell id="50" value="" style="endArrow=classic;html=1;dashed=1;" parent="1" edge="1">
                    <mxGeometry width="50" height="50" relative="1" as="geometry">
                        <mxPoint x="139.5" y="270" as="sourcePoint"/>
                        <mxPoint x="139.5" y="90" as="targetPoint"/>
                    </mxGeometry>
                </mxCell>
                <mxCell id="51" value="" style="endArrow=classic;html=1;dashed=1;" parent="1" edge="1">
                    <mxGeometry width="50" height="50" relative="1" as="geometry">
                        <mxPoint x="59.5" y="270" as="sourcePoint"/>
                        <mxPoint x="59.5" y="90" as="targetPoint"/>
                    </mxGeometry>
                </mxCell>
                <mxCell id="52" value="" style="endArrow=classic;html=1;dashed=1;" parent="1" edge="1">
                    <mxGeometry width="50" height="50" relative="1" as="geometry">
                        <mxPoint x="299.5" y="270" as="sourcePoint"/>
                        <mxPoint x="299.5" y="90" as="targetPoint"/>
                    </mxGeometry>
                </mxCell>
                <mxCell id="53" value="t2 &amp;gt; t1" style="text;html=1;strokeColor=none;fillColor=none;align=center;verticalAlign=middle;whiteSpace=wrap;rounded=0;" parent="1" vertex="1">
                    <mxGeometry x="-50" y="5" width="60" height="30" as="geometry"/>
                </mxCell>
                <mxCell id="65" value="" style="shape=waypoint;sketch=0;fillStyle=solid;size=6;pointerEvents=1;points=[];fillColor=none;resizable=0;rotatable=0;perimeter=centerPerimeter;snapToPoint=1;strokeWidth=7;" parent="1" vertex="1">
                    <mxGeometry x="400" y="10" width="20" height="20" as="geometry"/>
                </mxCell>
                <mxCell id="66" value="" style="shape=waypoint;sketch=0;fillStyle=solid;size=6;pointerEvents=1;points=[];fillColor=none;resizable=0;rotatable=0;perimeter=centerPerimeter;snapToPoint=1;strokeWidth=7;" parent="1" vertex="1">
                    <mxGeometry x="320" y="10" width="20" height="20" as="geometry"/>
                </mxCell>
                <mxCell id="67" value="" style="shape=waypoint;sketch=0;fillStyle=solid;size=6;pointerEvents=1;points=[];fillColor=none;resizable=0;rotatable=0;perimeter=centerPerimeter;snapToPoint=1;strokeWidth=7;" parent="1" vertex="1">
                    <mxGeometry x="560" y="10" width="20" height="20" as="geometry"/>
                </mxCell>
                <mxCell id="68" value="" style="endArrow=classic;startArrow=classic;html=1;exitX=1.091;exitY=0.611;exitDx=0;exitDy=0;exitPerimeter=0;entryX=0.331;entryY=0.611;entryDx=0;entryDy=0;entryPerimeter=0;fillColor=#d5e8d4;strokeColor=#82b366;" parent="1" source="66" target="65" edge="1">
                    <mxGeometry width="50" height="50" relative="1" as="geometry">
                        <mxPoint x="540" y="-90" as="sourcePoint"/>
                        <mxPoint x="590" y="-140" as="targetPoint"/>
                    </mxGeometry>
                </mxCell>
                <mxCell id="69" value="" style="endArrow=classic;startArrow=classic;html=1;exitX=0.511;exitY=1.031;exitDx=0;exitDy=0;exitPerimeter=0;fillColor=#d5e8d4;strokeColor=#82b366;" parent="1" source="65" target="73" edge="1">
                    <mxGeometry width="50" height="50" relative="1" as="geometry">
                        <mxPoint x="340" y="30" as="sourcePoint"/>
                        <mxPoint x="460" y="60" as="targetPoint"/>
                    </mxGeometry>
                </mxCell>
                <mxCell id="70" value="" style="endArrow=classic;startArrow=classic;html=1;fillColor=#d5e8d4;strokeColor=#82b366;" parent="1" source="74" target="67" edge="1">
                    <mxGeometry width="50" height="50" relative="1" as="geometry">
                        <mxPoint x="520" y="70" as="sourcePoint"/>
                        <mxPoint x="500" y="30" as="targetPoint"/>
                    </mxGeometry>
                </mxCell>
                <mxCell id="71" value="" style="shape=waypoint;sketch=0;fillStyle=solid;size=6;pointerEvents=1;points=[];fillColor=none;resizable=0;rotatable=0;perimeter=centerPerimeter;snapToPoint=1;strokeWidth=0;" parent="1" vertex="1">
                    <mxGeometry x="460" y="10" width="20" height="20" as="geometry"/>
                </mxCell>
                <mxCell id="72" value="" style="shape=waypoint;sketch=0;fillStyle=solid;size=6;pointerEvents=1;points=[];fillColor=none;resizable=0;rotatable=0;perimeter=centerPerimeter;snapToPoint=1;strokeWidth=0;" parent="1" vertex="1">
                    <mxGeometry x="470" y="10" width="20" height="20" as="geometry"/>
                </mxCell>
                <mxCell id="73" value="" style="shape=waypoint;sketch=0;fillStyle=solid;size=6;pointerEvents=1;points=[];fillColor=none;resizable=0;rotatable=0;perimeter=centerPerimeter;snapToPoint=1;strokeWidth=0;" parent="1" vertex="1">
                    <mxGeometry x="460" y="10" width="20" height="20" as="geometry"/>
                </mxCell>
                <mxCell id="74" value="" style="shape=waypoint;sketch=0;fillStyle=solid;size=6;pointerEvents=1;points=[];fillColor=none;resizable=0;rotatable=0;perimeter=centerPerimeter;snapToPoint=1;strokeWidth=0;" parent="1" vertex="1">
                    <mxGeometry x="480" y="10" width="20" height="20" as="geometry"/>
                </mxCell>
                <mxCell id="75" value="CR1" style="text;html=1;strokeColor=none;fillColor=none;align=center;verticalAlign=middle;whiteSpace=wrap;rounded=0;strokeWidth=0;" parent="1" vertex="1">
                    <mxGeometry x="300" y="40" width="60" height="30" as="geometry"/>
                </mxCell>
                <mxCell id="76" value="CR2" style="text;html=1;strokeColor=none;fillColor=none;align=center;verticalAlign=middle;whiteSpace=wrap;rounded=0;strokeWidth=0;" parent="1" vertex="1">
                    <mxGeometry x="380" y="40" width="60" height="30" as="geometry"/>
                </mxCell>
                <mxCell id="77" value="CRn" style="text;html=1;strokeColor=none;fillColor=none;align=center;verticalAlign=middle;whiteSpace=wrap;rounded=0;strokeWidth=0;" parent="1" vertex="1">
                    <mxGeometry x="540" y="40" width="60" height="30" as="geometry"/>
                </mxCell>
                <mxCell id="78" value="" style="endArrow=classic;html=1;dashed=1;" parent="1" edge="1">
                    <mxGeometry width="50" height="50" relative="1" as="geometry">
                        <mxPoint x="220" y="-30" as="sourcePoint"/>
                        <mxPoint x="400" y="-30" as="targetPoint"/>
                    </mxGeometry>
                </mxCell>
                <mxCell id="79" value="" style="shape=waypoint;sketch=0;fillStyle=solid;size=6;pointerEvents=1;points=[];fillColor=none;resizable=0;rotatable=0;perimeter=centerPerimeter;snapToPoint=1;strokeWidth=7;" parent="1" vertex="1">
                    <mxGeometry x="403" y="330" width="20" height="20" as="geometry"/>
                </mxCell>
                <mxCell id="80" value="" style="shape=waypoint;sketch=0;fillStyle=solid;size=6;pointerEvents=1;points=[];fillColor=none;resizable=0;rotatable=0;perimeter=centerPerimeter;snapToPoint=1;strokeWidth=7;" parent="1" vertex="1">
                    <mxGeometry x="323" y="330" width="20" height="20" as="geometry"/>
                </mxCell>
                <mxCell id="81" value="" style="shape=waypoint;sketch=0;fillStyle=solid;size=6;pointerEvents=1;points=[];fillColor=none;resizable=0;rotatable=0;perimeter=centerPerimeter;snapToPoint=1;strokeWidth=7;" parent="1" vertex="1">
                    <mxGeometry x="565" y="330" width="20" height="20" as="geometry"/>
                </mxCell>
                <mxCell id="82" value="" style="endArrow=classic;startArrow=classic;html=1;exitX=1.091;exitY=0.611;exitDx=0;exitDy=0;exitPerimeter=0;entryX=0.331;entryY=0.611;entryDx=0;entryDy=0;entryPerimeter=0;fillColor=#d5e8d4;strokeColor=#82b366;" parent="1" source="80" target="79" edge="1">
                    <mxGeometry width="50" height="50" relative="1" as="geometry">
                        <mxPoint x="550" y="230" as="sourcePoint"/>
                        <mxPoint x="600" y="180" as="targetPoint"/>
                    </mxGeometry>
                </mxCell>
                <mxCell id="83" value="" style="endArrow=classic;startArrow=classic;html=1;exitX=0.511;exitY=1.031;exitDx=0;exitDy=0;exitPerimeter=0;fillColor=#d5e8d4;strokeColor=#82b366;" parent="1" source="79" target="87" edge="1">
                    <mxGeometry width="50" height="50" relative="1" as="geometry">
                        <mxPoint x="350" y="350" as="sourcePoint"/>
                        <mxPoint x="470" y="380" as="targetPoint"/>
                    </mxGeometry>
                </mxCell>
                <mxCell id="84" value="" style="endArrow=classic;startArrow=classic;html=1;fillColor=#d5e8d4;strokeColor=#82b366;" parent="1" source="88" target="81" edge="1">
                    <mxGeometry width="50" height="50" relative="1" as="geometry">
                        <mxPoint x="530" y="390" as="sourcePoint"/>
                        <mxPoint x="510" y="350" as="targetPoint"/>
                    </mxGeometry>
                </mxCell>
                <mxCell id="85" value="" style="shape=waypoint;sketch=0;fillStyle=solid;size=6;pointerEvents=1;points=[];fillColor=none;resizable=0;rotatable=0;perimeter=centerPerimeter;snapToPoint=1;strokeWidth=0;" parent="1" vertex="1">
                    <mxGeometry x="470" y="330" width="20" height="20" as="geometry"/>
                </mxCell>
                <mxCell id="86" value="" style="shape=waypoint;sketch=0;fillStyle=solid;size=6;pointerEvents=1;points=[];fillColor=none;resizable=0;rotatable=0;perimeter=centerPerimeter;snapToPoint=1;strokeWidth=0;" parent="1" vertex="1">
                    <mxGeometry x="480" y="330" width="20" height="20" as="geometry"/>
                </mxCell>
                <mxCell id="87" value="" style="shape=waypoint;sketch=0;fillStyle=solid;size=6;pointerEvents=1;points=[];fillColor=none;resizable=0;rotatable=0;perimeter=centerPerimeter;snapToPoint=1;strokeWidth=0;" parent="1" vertex="1">
                    <mxGeometry x="470" y="330" width="20" height="20" as="geometry"/>
                </mxCell>
                <mxCell id="88" value="" style="shape=waypoint;sketch=0;fillStyle=solid;size=6;pointerEvents=1;points=[];fillColor=none;resizable=0;rotatable=0;perimeter=centerPerimeter;snapToPoint=1;strokeWidth=0;" parent="1" vertex="1">
                    <mxGeometry x="490" y="330" width="20" height="20" as="geometry"/>
                </mxCell>
                <mxCell id="92" value="" style="shape=waypoint;sketch=0;fillStyle=solid;size=6;pointerEvents=1;points=[];fillColor=none;resizable=0;rotatable=0;perimeter=centerPerimeter;snapToPoint=1;strokeWidth=7;" parent="1" vertex="1">
                    <mxGeometry x="413" y="650" width="20" height="20" as="geometry"/>
                </mxCell>
                <mxCell id="93" value="" style="shape=waypoint;sketch=0;fillStyle=solid;size=6;pointerEvents=1;points=[];fillColor=none;resizable=0;rotatable=0;perimeter=centerPerimeter;snapToPoint=1;strokeWidth=7;" parent="1" vertex="1">
                    <mxGeometry x="333" y="650" width="20" height="20" as="geometry"/>
                </mxCell>
                <mxCell id="94" value="" style="shape=waypoint;sketch=0;fillStyle=solid;size=6;pointerEvents=1;points=[];fillColor=none;resizable=0;rotatable=0;perimeter=centerPerimeter;snapToPoint=1;strokeWidth=7;" parent="1" vertex="1">
                    <mxGeometry x="573" y="650" width="20" height="20" as="geometry"/>
                </mxCell>
                <mxCell id="95" value="" style="endArrow=classic;startArrow=classic;html=1;exitX=1.091;exitY=0.611;exitDx=0;exitDy=0;exitPerimeter=0;entryX=0.331;entryY=0.611;entryDx=0;entryDy=0;entryPerimeter=0;fillColor=#d5e8d4;strokeColor=#82b366;" parent="1" source="93" target="92" edge="1">
                    <mxGeometry width="50" height="50" relative="1" as="geometry">
                        <mxPoint x="553" y="550" as="sourcePoint"/>
                        <mxPoint x="603" y="500" as="targetPoint"/>
                    </mxGeometry>
                </mxCell>
                <mxCell id="96" value="" style="endArrow=classic;startArrow=classic;html=1;exitX=0.511;exitY=1.031;exitDx=0;exitDy=0;exitPerimeter=0;fillColor=#d5e8d4;strokeColor=#82b366;" parent="1" source="92" target="100" edge="1">
                    <mxGeometry width="50" height="50" relative="1" as="geometry">
                        <mxPoint x="353" y="670" as="sourcePoint"/>
                        <mxPoint x="473" y="700" as="targetPoint"/>
                    </mxGeometry>
                </mxCell>
                <mxCell id="97" value="" style="endArrow=classic;startArrow=classic;html=1;fillColor=#d5e8d4;strokeColor=#82b366;" parent="1" source="101" target="94" edge="1">
                    <mxGeometry width="50" height="50" relative="1" as="geometry">
                        <mxPoint x="533" y="710" as="sourcePoint"/>
                        <mxPoint x="513" y="670" as="targetPoint"/>
                    </mxGeometry>
                </mxCell>
                <mxCell id="98" value="" style="shape=waypoint;sketch=0;fillStyle=solid;size=6;pointerEvents=1;points=[];fillColor=none;resizable=0;rotatable=0;perimeter=centerPerimeter;snapToPoint=1;strokeWidth=0;" parent="1" vertex="1">
                    <mxGeometry x="473" y="650" width="20" height="20" as="geometry"/>
                </mxCell>
                <mxCell id="99" value="" style="shape=waypoint;sketch=0;fillStyle=solid;size=6;pointerEvents=1;points=[];fillColor=none;resizable=0;rotatable=0;perimeter=centerPerimeter;snapToPoint=1;strokeWidth=0;" parent="1" vertex="1">
                    <mxGeometry x="483" y="650" width="20" height="20" as="geometry"/>
                </mxCell>
                <mxCell id="100" value="" style="shape=waypoint;sketch=0;fillStyle=solid;size=6;pointerEvents=1;points=[];fillColor=none;resizable=0;rotatable=0;perimeter=centerPerimeter;snapToPoint=1;strokeWidth=0;" parent="1" vertex="1">
                    <mxGeometry x="473" y="650" width="20" height="20" as="geometry"/>
                </mxCell>
                <mxCell id="101" value="" style="shape=waypoint;sketch=0;fillStyle=solid;size=6;pointerEvents=1;points=[];fillColor=none;resizable=0;rotatable=0;perimeter=centerPerimeter;snapToPoint=1;strokeWidth=0;" parent="1" vertex="1">
                    <mxGeometry x="493" y="650" width="20" height="20" as="geometry"/>
                </mxCell>
                <mxCell id="105" value="" style="endArrow=classic;html=1;dashed=1;" parent="1" edge="1">
                    <mxGeometry width="50" height="50" relative="1" as="geometry">
                        <mxPoint x="420" y="410" as="sourcePoint"/>
                        <mxPoint x="420" y="600" as="targetPoint"/>
                    </mxGeometry>
                </mxCell>
                <mxCell id="107" value="" style="endArrow=classic;html=1;dashed=1;" parent="1" edge="1">
                    <mxGeometry width="50" height="50" relative="1" as="geometry">
                        <mxPoint x="340" y="410" as="sourcePoint"/>
                        <mxPoint x="340" y="600" as="targetPoint"/>
                    </mxGeometry>
                </mxCell>
                <mxCell id="108" value="" style="endArrow=classic;html=1;dashed=1;" parent="1" edge="1">
                    <mxGeometry width="50" height="50" relative="1" as="geometry">
                        <mxPoint x="580" y="410" as="sourcePoint"/>
                        <mxPoint x="580" y="600" as="targetPoint"/>
                    </mxGeometry>
                </mxCell>
                <mxCell id="109" value="" style="endArrow=classic;html=1;dashed=1;" parent="1" edge="1">
                    <mxGeometry width="50" height="50" relative="1" as="geometry">
                        <mxPoint x="329.5" y="90" as="sourcePoint"/>
                        <mxPoint x="329.5" y="280" as="targetPoint"/>
                    </mxGeometry>
                </mxCell>
                <mxCell id="110" value="" style="endArrow=classic;html=1;dashed=1;" parent="1" edge="1">
                    <mxGeometry width="50" height="50" relative="1" as="geometry">
                        <mxPoint x="409" y="90" as="sourcePoint"/>
                        <mxPoint x="409" y="280" as="targetPoint"/>
                    </mxGeometry>
                </mxCell>
                <mxCell id="111" value="" style="endArrow=classic;html=1;dashed=1;" parent="1" edge="1">
                    <mxGeometry width="50" height="50" relative="1" as="geometry">
                        <mxPoint x="573" y="90" as="sourcePoint"/>
                        <mxPoint x="573" y="280" as="targetPoint"/>
                    </mxGeometry>
                </mxCell>
                <mxCell id="112" value="t3 &amp;gt; t2" style="text;html=1;strokeColor=none;fillColor=none;align=center;verticalAlign=middle;whiteSpace=wrap;rounded=0;" parent="1" vertex="1">
                    <mxGeometry x="620" y="5" width="60" height="30" as="geometry"/>
                </mxCell>
                <mxCell id="113" value="t4 &amp;gt; t3" style="text;html=1;strokeColor=none;fillColor=none;align=center;verticalAlign=middle;whiteSpace=wrap;rounded=0;" parent="1" vertex="1">
                    <mxGeometry x="620" y="325" width="60" height="30" as="geometry"/>
                </mxCell>
                <mxCell id="114" value="t5 &amp;gt; t4" style="text;html=1;strokeColor=none;fillColor=none;align=center;verticalAlign=middle;whiteSpace=wrap;rounded=0;" parent="1" vertex="1">
                    <mxGeometry x="620" y="645" width="60" height="30" as="geometry"/>
                </mxCell>
                <mxCell id="115" value="" style="endArrow=classic;html=1;dashed=1;" parent="1" edge="1">
                    <mxGeometry width="50" height="50" relative="1" as="geometry">
                        <mxPoint x="530" y="694.5" as="sourcePoint"/>
                        <mxPoint x="710" y="694.5" as="targetPoint"/>
                    </mxGeometry>
                </mxCell>
                <mxCell id="116" value="d" style="text;html=1;strokeColor=none;fillColor=none;align=center;verticalAlign=middle;whiteSpace=wrap;rounded=0;" vertex="1" parent="1">
                    <mxGeometry x="70" y="660" width="60" height="30" as="geometry"/>
                </mxCell>
                <mxCell id="117" value="d" style="text;html=1;strokeColor=none;fillColor=none;align=center;verticalAlign=middle;whiteSpace=wrap;rounded=0;" vertex="1" parent="1">
                    <mxGeometry x="70" y="335" width="60" height="30" as="geometry"/>
                </mxCell>
                <mxCell id="118" value="d" style="text;html=1;strokeColor=none;fillColor=none;align=center;verticalAlign=middle;whiteSpace=wrap;rounded=0;" vertex="1" parent="1">
                    <mxGeometry x="70" y="20" width="60" height="30" as="geometry"/>
                </mxCell>
                <mxCell id="119" value="d" style="text;html=1;strokeColor=none;fillColor=none;align=center;verticalAlign=middle;whiteSpace=wrap;rounded=0;" vertex="1" parent="1">
                    <mxGeometry x="140" y="660" width="60" height="30" as="geometry"/>
                </mxCell>
                <mxCell id="120" value="d" style="text;html=1;strokeColor=none;fillColor=none;align=center;verticalAlign=middle;whiteSpace=wrap;rounded=0;" vertex="1" parent="1">
                    <mxGeometry x="230" y="660" width="60" height="30" as="geometry"/>
                </mxCell>
            </root>
        </mxGraphModel>
    </diagram>
</mxfile>